<?xml version="1.0" encoding="utf-8"?>
<!-- Generator: Adobe Illustrator 16.0.0, SVG Export Plug-In . SVG Version: 6.00 Build 0)  -->
<!DOCTYPE svg PUBLIC "-//W3C//DTD SVG 1.1//EN" "http://www.w3.org/Graphics/SVG/1.1/DTD/svg11.dtd">
<svg version="1.1" id="Layer_1" xmlns="http://www.w3.org/2000/svg" xmlns:xlink="http://www.w3.org/1999/xlink" x="0px" y="0px"
	 width="1745px" height="531px" viewBox="0 0 1745 531" enable-background="new 0 0 1745 531" xml:space="preserve">
<path fill-rule="evenodd" clip-rule="evenodd" fill="#0A4B85" d="M462.752,301.473c-0.722-17.625,2.745-33.783,10.399-48.472
	c7.654-14.689,18.349-26.628,32.084-35.816c13.736-9.188,29.365-14.343,46.887-15.465c17.547-0.716,33.658,2.775,48.331,10.475
	s26.61,18.452,35.811,32.257s14.365,29.511,15.494,47.114c0.642,14.455-1.695,28.001-7.01,40.642
	c-5.315,12.64-12.95,23.639-22.904,32.997c-9.711-9.067-19.047-18.276-28.008-27.627c-8.96-9.351-19.102-17.238-30.423-23.666
	c-11.321-6.427-25.379-9.789-42.172-10.086l-0.921,35.604c14.617,0.409,27.395,5.039,38.334,13.888
	c10.939,8.85,21.845,19.212,32.718,31.088c-9.209,3.636-18.991,5.739-29.344,6.309c-17.543,0.714-33.625-2.766-48.245-10.438
	c-14.619-7.673-26.5-18.368-35.643-32.087S463.868,318.898,462.752,301.473z M693.538,289.706
	c-1.627-25.388-9.061-48.05-22.302-67.989c-13.241-19.938-30.423-35.475-51.546-46.607c-21.123-11.133-44.32-16.186-69.592-15.157
	c-25.292,1.622-47.859,9.072-67.699,22.353c-19.84,13.28-35.292,30.526-46.355,51.738s-16.075,44.527-15.037,69.945
	c1.611,25.112,9.019,47.544,22.223,67.294c13.205,19.751,30.353,35.145,51.444,46.181c21.091,11.037,44.272,16.04,69.542,15.012
	c11.226-0.609,22.017-2.483,32.373-5.623c10.355-3.139,20.119-7.413,29.289-12.82c8.766,5.943,18.747,10.732,29.942,14.367
	c11.195,3.634,23.996,5.454,38.402,5.462l2.129-40.534c-7.335,0.044-14.115-0.433-20.338-1.429
	c-6.224-0.996-12.031-2.423-17.421-4.28c11.787-13.158,20.771-28.094,26.953-44.807
	C691.727,326.099,694.391,308.396,693.538,289.706z"/>
<path fill-rule="evenodd" clip-rule="evenodd" fill="#0A4B85" d="M733.388,292.346v-89.209h43.144
	c13.122,0.254,24.205,4.444,33.25,12.569s13.759,18.662,14.141,31.612c-0.361,12.552-5.032,23.124-14.014,31.719
	s-20.107,13.031-33.378,13.31H733.388z M893.308,433.374l-79.219-108.987c15.91-5.419,28.786-14.964,38.627-28.638
	c9.842-13.673,14.907-29.479,15.197-47.416c-0.198-16.378-4.409-31.158-12.632-44.338c-8.224-13.18-19.273-23.662-33.147-31.444
	c-13.874-7.782-29.386-11.766-46.535-11.948h-84.881l0.169,272.771h42.832V327.946h33.572l73.488,105.428H893.308z"/>
<rect x="906.773" y="320.351" fill-rule="evenodd" clip-rule="evenodd" fill="#999999" width="9.231" height="112.017"/>
<polygon fill-rule="evenodd" clip-rule="evenodd" fill="#999999" points="1032.326,432.367 1023.094,432.367 959.469,336.506 
	959.008,336.585 959.008,432.367 949.776,432.367 949.776,320.351 959.008,320.351 1022.631,415.98 1023.094,415.902 
	1023.094,320.351 1032.326,320.351 "/>
<path fill-rule="evenodd" clip-rule="evenodd" fill="#999999" d="M1140.468,417.288c-2.462,4.052-7.014,7.848-13.655,11.386
	c-6.641,3.539-15.015,5.309-25.119,5.309c-12.873,0-23.412-4.437-31.619-13.31c-8.206-8.872-12.309-20.361-12.309-34.466v-20.543
	c0-13.847,3.975-25.13,11.924-33.85c7.949-8.719,18.233-13.078,30.852-13.078c12.154,0,21.81,3.205,28.965,9.615
	c7.155,6.411,10.63,14.565,10.425,24.465l-0.231,0.462h-8.464c0-7.745-2.667-14.13-8.001-19.157
	c-5.334-5.026-12.898-7.539-22.693-7.539c-10.053,0-18.156,3.642-24.312,10.925s-9.232,16.618-9.232,28.005v20.695
	c0,11.693,3.206,21.284,9.616,28.772c6.411,7.488,14.771,11.232,25.08,11.232c7.848,0,14.26-1.18,19.234-3.538
	c4.975-2.359,8.437-5.104,10.387-8.232v-28.697h-30.158v-7.847h39.312V417.288z"/>
<polygon fill-rule="evenodd" clip-rule="evenodd" fill="#999999" points="1226.212,378.129 1175.975,378.129 1175.975,424.598 
	1234.058,424.598 1234.058,432.367 1166.742,432.367 1166.742,320.351 1233.674,320.351 1233.674,328.197 1175.975,328.197 
	1175.975,370.28 1226.212,370.28 "/>
<polygon fill-rule="evenodd" clip-rule="evenodd" fill="#999999" points="1336.374,432.367 1327.143,432.367 1263.518,336.506 
	1263.057,336.585 1263.057,432.367 1253.824,432.367 1253.824,320.351 1263.057,320.351 1326.68,415.98 1327.143,415.902 
	1327.143,320.351 1336.374,320.351 "/>
<rect x="1367.274" y="320.351" fill-rule="evenodd" clip-rule="evenodd" fill="#999999" width="9.231" height="112.017"/>
<polygon fill-rule="evenodd" clip-rule="evenodd" fill="#999999" points="1469.746,378.129 1419.51,378.129 1419.51,424.598 
	1477.593,424.598 1477.593,432.367 1410.277,432.367 1410.277,320.351 1477.209,320.351 1477.209,328.197 1419.51,328.197 
	1419.51,370.28 1469.746,370.28 "/>
<path fill-rule="evenodd" clip-rule="evenodd" fill="#999999" d="M1506.36,373.896h27.004c10.104,0,17.489-2.038,22.156-6.116
	c4.667-4.077,7-9.579,7-16.503c0-7.386-2.32-13.065-6.962-17.04s-11.681-5.962-21.118-5.962h-28.08V373.896z M1506.36,381.743
	v50.624h-9.232V320.428h37.313c12.003,0,21.209,2.628,27.62,7.885c6.41,5.257,9.616,12.938,9.616,23.043
	c0,5.95-1.706,11.271-5.116,15.963c-3.41,4.693-8.244,8.116-14.503,10.271c6.925,1.743,11.913,4.858,14.965,9.347
	s4.577,10.117,4.577,16.888v10.539c0,3.487,0.411,6.616,1.231,9.386s2.18,5.026,4.077,6.771v1.847h-9.385
	c-1.899-1.847-3.233-4.438-4.002-7.771c-0.77-3.334-1.153-6.796-1.153-10.385v-10.232c0-6.873-2.218-12.298-6.654-16.272
	c-4.437-3.976-10.63-5.963-18.58-5.963H1506.36z"/>
<rect x="1599.74" y="320.351" fill-rule="evenodd" clip-rule="evenodd" fill="#999999" width="9.232" height="112.017"/>
<path fill-rule="evenodd" clip-rule="evenodd" fill="#999999" d="M1656.389,392.9h43.236l-21.234-59.394h-0.461L1656.389,392.9z
	 M1702.625,401.131h-49.161l-11.308,31.236h-9.539l41.157-112.017h8.695l40.851,112.017h-9.54L1702.625,401.131z"/>
<path fill-rule="evenodd" clip-rule="evenodd" fill="#0A4B85" d="M978.856,303.793c10.213-0.131,19.214-2.111,27.001-5.945
	c7.789-3.833,14.631-8.738,20.527-14.717l-12.48-17.457c-4.759,4.804-10.137,8.719-16.135,11.746s-12.53,4.59-19.597,4.686
	c-8.382-0.093-16.267-2.293-23.657-6.599c-7.39-4.307-13.407-10.158-18.053-17.555c-4.645-7.396-7.04-15.777-7.187-25.143
	c0.141-9.336,2.51-17.731,7.108-25.186c4.598-7.453,10.582-13.367,17.954-17.742c7.371-4.375,15.288-6.611,23.748-6.711
	c6.794,0.065,13.23,1.54,19.309,4.422s11.553,6.775,16.423,11.681l12.566-16.957c-6.787-6.627-14.221-11.744-22.301-15.352
	s-16.603-5.494-25.569-5.656c-13.068,0.161-24.946,3.448-35.636,9.862c-10.688,6.414-19.226,14.987-25.611,25.722
	c-6.387,10.735-9.659,22.664-9.82,35.788c0.158,13.15,3.436,25.071,9.832,35.762c6.397,10.691,14.964,19.217,25.701,25.576
	S965.677,303.637,978.856,303.793z"/>
<polygon fill-rule="evenodd" clip-rule="evenodd" fill="#0A4B85" points="1065.293,280.005 1065.293,163.76 1043.64,163.76 
	1043.64,301.517 1126.755,301.517 1126.755,280.005 "/>
<polygon fill-rule="evenodd" clip-rule="evenodd" fill="#0A4B85" points="1226.184,185.08 1226.184,163.776 1144.095,163.776 
	1144.095,301.517 1226.184,301.517 1226.184,280.005 1165.748,280.005 1165.748,241.818 1217.893,241.818 1217.893,220.307 
	1165.748,220.307 1165.748,185.08 "/>
<path fill-rule="evenodd" clip-rule="evenodd" fill="#0A4B85" d="M1278.457,261.973l24.281-53.854l24.194,53.854H1278.457z
	 M1344.716,301.517h23.429l-64.809-140.669h-1.282l-64.806,140.669h23.426l9.404-21.008h65.233L1344.716,301.517z"/>
<polygon fill-rule="evenodd" clip-rule="evenodd" fill="#0A4B85" points="1472.623,163.41 1472.623,253.232 1384.718,161.358 
	1383.53,161.358 1383.53,301.691 1405.184,301.691 1405.184,211.867 1493.458,303.793 1494.311,303.793 1494.311,163.41 "/>
<polygon fill-rule="evenodd" clip-rule="evenodd" fill="#0A4B85" points="1603.137,185.08 1603.137,163.776 1521.047,163.776 
	1521.047,301.517 1603.137,301.517 1603.137,280.005 1542.701,280.005 1542.701,241.818 1594.846,241.818 1594.846,220.307 
	1542.701,220.307 1542.701,185.08 "/>
<path fill-rule="evenodd" clip-rule="evenodd" fill="#0A4B85" d="M1647.075,230.302v-45.047h21.785
	c6.626,0.128,12.222,2.244,16.789,6.347c4.567,4.103,6.948,9.424,7.141,15.963c-0.183,6.338-2.541,11.677-7.076,16.017
	s-10.153,6.58-16.854,6.721H1647.075z M1727.824,301.517l-40-55.035c8.033-2.736,14.535-7.556,19.504-14.461
	s7.527-14.886,7.674-23.943c-0.1-8.271-2.227-15.734-6.379-22.39s-9.731-11.949-16.736-15.878c-7.006-3.93-14.838-5.94-23.498-6.033
	h-42.859l0.086,137.74h21.627v-53.237h16.952l37.106,53.237H1727.824z"/>
<path fill-rule="evenodd" clip-rule="evenodd" fill="#0A4B85" d="M204.361,13.018c-55.105,151.873,16.409,208.125,40.993,229.826
	c108.867,96.097,45.697,184.801,45.697,184.801C200.329,556.67,68.613,468.637,42.404,445.789c0,0,47.041,88.705,186.149,75.937
	c139.108-12.768,151.205-161.281,151.205-161.281c6.72-94.753-65.186-151.201-65.186-151.201
	C184.2,117.178,204.361,13.018,204.361,13.018z"/>
<g>
	<defs>
		<path id="SVGID_1_" d="M204.361,13.018c-55.105,151.873,16.409,208.125,40.993,229.826
			c108.867,96.097,45.697,184.801,45.697,184.801C200.329,556.67,68.613,468.637,42.404,445.789c0,0,47.041,88.705,186.149,75.937
			c139.108-12.768,151.205-161.281,151.205-161.281c6.72-94.753-65.186-151.201-65.186-151.201
			C184.2,117.178,204.361,13.018,204.361,13.018z"/>
	</defs>
	<clipPath id="SVGID_2_">
		<use xlink:href="#SVGID_1_"  overflow="visible"/>
	</clipPath>
	<g clip-path="url(#SVGID_2_)">
		<defs>
			<path id="SVGID_3_" d="M38.372,441.757c81.986,88.033,187.493,60.48,187.493,60.48c126.34-26.88,119.619-172.705,119.619-172.705
				c-7.392-90.049-128.355-172.034-128.355-172.034l150.532-60.48l93.411,379.011l-315.177,89.377
				c0,0-135.748-86.017-122.979-96.097C35.684,459.229,38.372,441.757,38.372,441.757z"/>
		</defs>
		<use xlink:href="#SVGID_3_"  overflow="visible" fill="#005696"/>
		<clipPath id="SVGID_4_">
			<use xlink:href="#SVGID_3_"  overflow="visible"/>
		</clipPath>
		<linearGradient id="SVGID_5_" gradientUnits="userSpaceOnUse" x1="209" y1="515" x2="209" y2="232.9362">
			<stop  offset="0" style="stop-color:#007EB3"/>
			<stop  offset="1" style="stop-color:#0A4B85"/>
		</linearGradient>
		<rect x="8" y="22" clip-path="url(#SVGID_4_)" fill="url(#SVGID_5_)" width="402" height="522"/>
	</g>
</g>
<g>
	<defs>
		<path id="SVGID_6_" d="M262.154,297.947c27.553,95.426-38.305,146.498-38.305,146.498c-81.314,59.809-159.94-10.752-159.94-10.752
			c-94.755-81.313,18.816-226.466,18.816-226.466C20.228,349.692,90.79,401.437,90.79,401.437
			c83.331,67.2,149.188-34.944,149.188-34.944C260.138,332.893,262.154,297.947,262.154,297.947z"/>
	</defs>
	<clipPath id="SVGID_7_">
		<use xlink:href="#SVGID_6_"  overflow="visible"/>
	</clipPath>
	<linearGradient id="SVGID_8_" gradientUnits="userSpaceOnUse" x1="18.5337" y1="344.5" x2="276.5337" y2="344.5">
		<stop  offset="0" style="stop-color:#007EB3"/>
		<stop  offset="1" style="stop-color:#0A4B85"/>
	</linearGradient>
	<rect x="18.534" y="199" clip-path="url(#SVGID_7_)" fill="url(#SVGID_8_)" width="258" height="291"/>
</g>
<g>
	<defs>
		<path id="SVGID_9_" d="M262.154,297.947c27.553,95.426-38.305,146.498-38.305,146.498c-81.314,59.809-159.94-10.752-159.94-10.752
			c-94.755-81.313,18.816-226.466,18.816-226.466C20.228,349.692,90.79,401.437,90.79,401.437
			c83.331,67.2,149.188-34.944,149.188-34.944C260.138,332.893,262.154,297.947,262.154,297.947z"/>
	</defs>
	<clipPath id="SVGID_10_">
		<use xlink:href="#SVGID_9_"  overflow="visible"/>
	</clipPath>
	<path clip-path="url(#SVGID_10_)" fill-rule="evenodd" clip-rule="evenodd" fill="#0A4B85" d="M263.499,288.54
		C276.957,444.464,157.27,441.514,157.27,441.514c-182.359-11.672-94.033-198.67-94.033-198.67
		c7.392-24.864,27.553-46.369,27.553-46.369l81.314,186.818L263.499,288.54z"/>
</g>
<path fill-rule="evenodd" clip-rule="evenodd" fill="#0A4B85" d="M215.785,373.213c64.514-69.889,5.376-116.257-11.424-131.042
	c-55.305-48.667-35.617-145.153-35.617-145.153C35.684,250.235,76.005,346.332,76.005,346.332
	c28.225,82.657,96.099,40.992,96.099,40.992c40.321-22.176,37.633-94.08,37.633-94.08
	C231.914,317.436,215.785,373.213,215.785,373.213z"/>
</svg>
